<svg width="174" height="289" viewBox="0 0 174 289" fill="none" xmlns="http://www.w3.org/2000/svg">
<path d="M63.4799 148.524C50.6516 148.591 39.1986 146.585 29.0982 139.596C20.3281 133.531 14.5565 125.189 10.9492 115.269C8.2438 107.852 7.00381 100.164 6.93617 92.2954C6.84599 84.382 9.12307 77.0999 13.587 70.6519C18.4118 63.6854 23.6423 57.012 28.6924 50.2258C30.3157 48.0615 31.9615 45.8971 33.5848 43.7328C36.0197 40.4862 36.696 36.5859 37.3273 32.7532C38.4095 26.0798 39.2662 19.3838 40.1455 12.6878C40.4611 10.1853 42.3098 8.85512 44.0684 7.63767C50.4938 3.19624 57.6406 0.85152 65.4639 1.75333C71.4384 2.42969 76.5562 5.36059 81.1329 9.17075C81.8092 11.3351 82.8689 13.4544 83.0943 15.6638C83.5227 20.1503 83.5227 24.6819 83.6354 29.191C83.8609 37.5553 87.1525 44.4091 92.9016 50.5415C99.6652 57.7785 105.256 65.985 109.653 74.8904C113.531 82.7362 114.635 91.078 113.485 99.7579C112.606 106.567 110.803 113.082 107.962 119.327C100.77 135.064 88.7758 144.691 71.6413 147.644C68.6879 148.163 65.6668 148.298 63.4799 148.524Z" fill="url(#paint0_linear)" stroke="white" stroke-width="2.5" stroke-miterlimit="10"/>
<path d="M112.382 285.263C109.519 268.805 108.324 252.166 107.174 235.528C107.061 233.814 106.791 232.124 106.633 230.41C105.754 220.445 100.591 213.772 91.3248 209.984C83.9975 206.985 76.8732 203.491 69.5234 200.515C66.818 199.433 63.6391 199.546 60.9111 198.531C58.1155 197.494 55.5904 195.758 52.9751 194.247C50.9461 193.075 48.8944 191.948 47.0006 190.572C36.3818 182.749 23.9818 178.285 12.4161 172.311C9.12445 170.597 7.14046 168.253 7.00519 164.307C6.84737 160.091 6.39647 155.853 5.72011 151.682C5.40447 149.743 4.14193 147.984 3.44303 146.091C2.92448 144.693 2.31576 143.227 2.24812 141.762C2.04521 136.892 2.02267 132.022 2.00012 127.152C1.97758 123.478 5.04374 121.696 8.33536 123.365C12.0328 125.214 12.3033 125.123 14.1972 121.336C15.0764 119.555 15.8881 117.728 16.9251 116.038C18.8415 112.949 22.2684 112.521 25.0415 114.865C28.1302 117.48 28.9193 121.967 27.0255 126.273C25.6051 129.497 24.0495 132.653 22.7418 135.923C22.3135 137.005 22.2233 138.357 22.3586 139.53C22.7869 142.912 23.6437 146.226 23.8691 149.608C24.0495 152.223 25.064 153.147 27.5665 153.53C30.1367 153.914 31.2865 153.147 32.1207 150.712C34.7134 143.024 37.4865 135.404 40.3047 127.806C41.9505 123.342 45.3774 120.208 48.7817 117.097C50.4275 115.587 52.0057 114.009 53.5613 112.408C54.621 111.326 55.5679 110.108 56.65 109.026C59.13 106.523 61.5649 105.892 63.9096 107.042C66.7053 108.417 68.5089 111.416 68.0354 114.572C67.7198 116.646 68.4413 117.796 70.0194 119.126C74.506 122.914 77.3241 127.942 79.9619 133.127C81.7881 136.712 83.8172 140.251 86.2295 143.475C88.5291 146.541 89.6339 146.406 92.2942 143.678C95.8789 140.003 99.8695 137.095 104.897 135.629C106.385 135.201 107.603 133.916 108.978 133.037C111.57 131.391 114.321 132.248 115.29 135.133C116.282 138.109 116.26 141.018 113.96 143.498C111.255 146.384 108.414 149.179 105.776 152.133C103.003 155.221 103.026 156.01 106.408 158.242C118.898 166.517 127.735 178.06 134.161 191.181C138.512 200.087 141.691 209.736 144.058 219.385C146.922 231.019 151.25 242.066 155.196 253.271C159.389 265.22 164.642 276.673 171 287.608L141.691 286.435L112.382 285.263ZM60.0093 127.874C59.7387 127.806 59.4682 127.716 59.1977 127.648C58.4988 128.934 57.4617 130.128 57.1686 131.504C55.9962 136.937 55.2071 142.483 53.9446 147.894C52.9075 152.336 55.162 155.514 57.4391 158.761C57.8449 159.325 58.7918 159.708 59.5358 159.798C63.2558 160.249 66.8856 159.956 70.3351 158.242C71.9358 157.453 72.7925 156.168 72.2514 154.545C71.4623 152.088 70.4703 149.675 69.2754 147.398C67.7198 144.4 65.6682 141.627 64.2253 138.583C62.602 135.111 61.4071 131.436 60.0093 127.874Z" fill="url(#paint1_linear)" stroke="white" stroke-width="2.5" stroke-miterlimit="10"/>
<defs>
<linearGradient id="paint0_linear" x1="6.93359" y1="20.4251" x2="133.662" y2="44.4737" gradientUnits="userSpaceOnUse">
<stop stop-color="#FF00B8"/>
<stop offset="0.505208" stop-color="#FF655B"/>
<stop offset="1" stop-color="#FFC700"/>
</linearGradient>
<linearGradient id="paint1_linear" x1="2" y1="129.735" x2="197.815" y2="177.364" gradientUnits="userSpaceOnUse">
<stop stop-color="#FF00B8"/>
<stop offset="0.505208" stop-color="#FF655B"/>
<stop offset="1" stop-color="#FFC700"/>
</linearGradient>
</defs>
</svg>
