<svg width="251" height="252" viewBox="0 0 251 252" fill="none" xmlns="http://www.w3.org/2000/svg">
<path d="M52.1816 227.537C52.0005 225.28 51.8743 223.727 51.6986 221.552C53.4824 221.822 55.5681 222.008 57.5934 222.469C60.5189 223.134 61.6715 222.447 61.9679 219.389C62.1161 217.852 62.5881 216.018 61.9734 214.794C60.0304 210.918 62.6924 209.254 65.058 207.459C68.6805 204.708 69.2294 203.33 67.5224 199.113C67.1162 198.114 66.1447 197.28 65.2775 196.555C63.6913 195.232 62.0228 194.002 60.3268 192.816C57.9721 191.163 55.645 189.445 53.1531 188.023C51.1058 186.859 48.839 186.09 46.1935 184.937C44.739 181.166 41.3031 178.075 39.1022 178.162C37.0439 176.373 35.4906 175.022 33.9319 173.666C35.8694 169.647 33.1305 166.375 31.8627 163.004C30.6826 159.869 28.3389 157.453 25.397 155.432C23.4046 154.065 22.0654 151.49 20.9128 149.217C19.0796 145.605 17.7623 141.729 15.9456 138.11C15.4626 137.144 13.6568 136.908 12.9762 135.969C11.4284 133.822 10.2045 131.445 8.7335 128.975C6.39533 129.595 8.01997 127.333 7.70712 125.543C6.12639 126.449 4.84753 127.179 3.33816 128.036C1.72998 125.576 1.01646 122.408 1.45006 118.988C1.82878 115.995 2.3502 113.025 2.7838 110.038C2.91553 109.138 3.19545 108.155 2.98688 107.321C1.87818 102.934 3.74432 99.0742 4.91889 95.0663C6.45571 89.834 7.77298 84.5358 9.39213 79.3255C10.1166 76.9976 11.3406 74.8234 12.4109 72.4132C14.9137 74.4665 14.1343 76.8329 13.5031 78.9851C12.8116 81.3459 11.6589 83.564 10.8356 85.8919C10.4899 86.8692 10.4679 87.9618 10.3032 89.0049C10.5832 89.0818 10.8631 89.1532 11.143 89.23C12.2572 86.0621 13.5141 82.9326 14.4472 79.7098C15.4955 76.1191 17.6086 73.3904 20.9677 72.0508C23.6516 70.9747 25.2927 69.5856 26.1654 66.7142C27.0436 63.8428 33.6629 60.0435 36.4182 60.2521C39.0198 55.9916 39.6565 55.7006 48.4548 54.9814C46.4624 55.9751 45.0574 56.6724 43.6523 57.3752C43.784 57.6497 43.9212 57.9242 44.0529 58.1987C47.2967 57.1336 51.287 57.8803 53.669 54.1853C53.2464 54.0151 53.0763 53.8778 52.9391 53.9053C51.8139 54.1249 50.6942 54.3719 49.5745 54.6135C49.7886 53.3782 49.816 52.066 50.2716 50.9295C50.6722 49.9303 51.5559 49.1177 52.456 47.9263C51.4022 47.6792 50.4911 47.4651 49.58 47.251C49.5196 47.0533 49.4538 46.8612 49.3934 46.6635C51.0016 46.2627 52.6372 45.4337 54.2069 45.5545C57.2147 45.7906 60.1841 46.5702 62.868 47.0643C61.1171 48.6016 58.8339 50.6166 56.095 53.0268C58.6692 53.0433 58.9162 55.8379 61.0677 55.8928C61.7758 55.9092 62.7473 56.0245 63.1479 55.6292C64.3939 54.4049 64.2237 51.1821 62.8131 49.5734C64.1853 47.9537 65.4861 46.1749 67.0339 44.6431C68.8342 42.8642 67.8407 40.723 67.9121 38.8124C67.9779 36.9621 67.6541 35.4907 69.4763 34.0577C70.7826 33.031 71.2986 30.9996 72.4731 28.8639C70.6893 29.5776 69.4379 30.0772 68.192 30.5769C67.9889 30.4012 67.7913 30.231 67.5882 30.0553C68.1426 29.1494 68.6421 28.1941 69.2788 27.3485C69.652 26.8544 70.5576 26.6238 70.6948 26.1242C70.9967 25.0701 70.9528 23.9116 71.0516 22.7971C70.0636 22.9124 68.8342 22.6927 68.1261 23.2033C65.5026 25.0865 63.0491 27.2058 60.5353 29.2482C60.2499 29.4788 60.0468 29.8082 59.745 30.0059C55.8096 32.5259 51.8688 35.0295 47.4065 37.868C48.3725 36.4131 48.8829 34.9526 49.9038 34.2389C53.0872 32.0153 54.1301 28.4631 56.0182 25.4159C56.8415 24.0873 58.2027 22.8739 59.6023 22.1602C63.1534 20.3374 66.8637 18.8221 71.1888 16.8785C70.8156 18.0699 70.6838 18.4871 70.4643 19.1899C73.4885 20.4417 73.9551 16.3514 76.5293 16.2416C78.9168 16.1428 81.2495 14.6824 83.5712 13.8314C82.8357 11.2125 83.681 10.5207 88.5768 9.34575C84.7403 12.305 84.7403 12.305 86.1893 13.9576C83.8785 18.6628 78.8564 18.1467 75.0418 19.6346C74.8003 21.5123 74.5808 23.2418 74.2734 25.663C75.5907 24.7571 76.3262 24.252 77.0946 23.7249C77.2318 24.1696 77.3525 24.5649 77.6599 25.5532C79.5041 23.4065 81.1013 21.5453 83.2254 19.0691C82.7644 20.4527 82.5448 21.106 82.1935 22.1602C84.7897 21.6551 86.7656 21.15 87.1882 18.2566C87.3144 17.3781 88.242 16.604 88.8458 15.8134C89.6526 14.7537 90.5198 13.7435 91.3157 12.6784C91.9962 11.7725 92.6055 10.8172 93.2806 9.83439C92.6714 8.91751 91.9139 7.76454 90.8766 6.19979C92.3146 5.82096 93.4288 5.52997 94.8723 5.15114C94.801 6.5951 94.757 7.53943 94.6802 9.23046C96.1621 8.56613 97.2379 8.08298 97.5892 7.92925C99.598 7.62728 100.937 7.49551 102.244 7.21551C106.294 6.35352 110.328 5.44213 114.324 4.55819C111.163 2.17538 106.997 5.44213 103.517 2.89462C106.514 2.47186 109.5 1.94479 112.507 1.64282C128.139 0.0835673 143.573 1.33536 158.661 5.67821C162.948 6.91354 167.449 8.1269 170.813 11.5309C171.433 12.1568 172.317 12.618 173.162 12.92C176.774 14.2102 178.206 16.604 177.114 20.5186C176.302 20.2386 175.495 19.964 174.864 19.7444C176.236 21.4849 177.658 23.2857 179.288 25.3446C176.56 27.0081 174.99 25.3885 172.937 23.8567C174.156 23.6206 174.968 23.4614 175.78 23.3022C175.885 23.0386 175.984 22.7806 176.088 22.5171C174.655 21.7813 173.3 20.7437 171.779 20.3648C168.173 19.4644 164.496 18.8605 160.84 18.1632C158.738 17.7624 155.89 21.117 156.202 23.1539C156.636 25.9814 157.426 28.7815 154.572 31.3016C151.411 34.0962 153.041 39.4163 157.157 40.5253C157.904 40.7285 159.111 40.2453 159.732 39.6743C161.065 38.45 162.07 38.5433 163.178 39.861C164.408 41.3214 165.599 42.8368 166.993 44.127C167.586 44.676 169.178 45.1647 169.414 44.8956C170.138 44.0666 170.742 42.8752 170.813 41.7881C170.907 40.3442 170.577 38.8288 170.177 37.4178C169.957 36.6601 169.337 35.8531 168.667 35.4138C166.45 33.9589 164.655 32.5479 166.186 29.4349C166.543 28.7156 165.808 27.4583 165.489 26.0858C167.602 25.7948 168.964 26.3768 168.722 28.6717C168.415 31.6145 170.237 33.2177 172.18 34.7221C173.42 35.6829 174.82 36.3637 176.335 34.8593C176.703 34.4915 177.652 34.7056 178.558 34.6342C177.328 36.0123 176.494 36.9511 175.654 37.8955C176.807 38.5763 177.959 39.2516 179.112 39.9324C179.041 40.1191 178.964 40.3112 178.892 40.4979C178.152 40.454 177.416 40.4155 176.088 40.3387C176.642 41.6014 176.999 42.5513 177.465 43.4462C178.459 45.3239 177.778 46.5921 175.72 46.6251C175.358 46.6306 174.842 46.4714 174.661 46.6525C172.443 48.9091 169.567 47.7396 167.092 48.1789C167.092 47.3114 167.405 46.2243 166.993 45.6313C166.658 45.1482 165.462 45.258 164.463 45.0713C164.035 44.2533 163.497 43.2266 162.959 42.1999C160.84 43.3638 160.84 43.3638 163.431 49.4691C160.687 50.1005 158.958 51.4127 158.03 54.4872C157.339 56.7822 154.753 58.5775 152.821 60.3839C152.349 60.8231 151.12 60.4497 150.083 60.4497C150.192 60.9109 150.324 61.4655 150.456 62.0364C148.826 62.2945 147.223 62.547 145.62 62.7996C145.593 63.1016 145.565 63.409 145.538 63.711C146.191 64.002 146.828 64.3589 147.508 64.562C150.736 65.5393 153.217 69.0641 153.008 72.3857C152.876 74.472 151.982 75.5756 149.731 75.4383C146.822 75.2572 143.902 75.1199 140.993 75.1858C139.918 75.2077 138.858 75.8556 137.788 76.218C138.326 79.9679 139.429 83.3993 137.42 86.8967C136.959 87.6982 138.381 89.4222 138.551 90.7728C138.82 92.9635 140.335 92.1564 141.57 92.4858C143.041 92.8756 144.341 93.8913 145.324 94.4184C147.777 93.9682 150.033 93.496 152.3 93.1501C154.995 92.7384 157.624 88.6316 157.048 85.9468C156.537 83.575 157.855 81.8895 159.83 80.8243C161.554 79.902 162.492 78.7819 162.191 76.6956C161.889 74.5818 163.48 74.4007 164.864 74.796C167.037 75.4219 168.651 74.7301 169.99 73.1763C171.845 71.0241 173.157 72.3253 174.776 73.5826C177.103 75.3834 179.633 76.9207 182.087 78.5568C183.821 79.7098 185.704 80.6926 187.268 82.0377C187.96 82.6362 188.514 84.135 188.24 84.8982C187.965 85.6613 186.61 86.1335 185.644 86.5068C184.886 86.8033 183.991 86.7594 183.163 86.8637C183.108 87.1767 183.053 87.4951 182.993 87.808C184.65 88.4669 186.302 89.1257 188.355 89.9383C187.943 86.43 192.312 83.7836 188.229 80.2698C189.645 80.2698 190.397 80.2698 191.928 80.2698C189.019 77.6894 185.676 77.1513 183.19 75.367C180.742 73.6101 177.46 72.0728 177.197 68.1746C177.745 68.0868 178.141 67.9111 178.245 68.0154C181.066 70.9527 184.886 72.0343 188.454 73.5991C190.528 74.5105 192.191 75.7897 192.784 78.189C192.987 79.018 193.63 79.8031 194.228 80.462C195.979 82.3891 197.784 84.2613 199.618 86.106C200.134 86.6276 200.809 86.99 201.561 87.5335C201.758 85.6503 201.906 84.1954 202.088 82.5044C200.886 81.3569 199.409 79.9459 198.125 78.7216C198.811 78.0957 199.261 77.6729 199.727 77.2666C200.254 76.8054 200.957 75.8885 201.308 76.0038C202.115 76.2729 203.048 76.8988 203.41 77.6345C204.354 79.5286 204.826 81.7577 206.78 82.8997C208.773 84.0636 210.738 86.4794 213.306 83.7507C213.46 83.586 213.899 83.4817 214.075 83.5805C216.374 84.8762 217.626 83.6848 218.416 81.1922C221.567 85.4417 222.247 89.8614 222.423 94.4019C222.445 94.929 221.902 95.9447 221.622 95.9447C217.878 95.9447 215.452 100.233 211.363 99.0358C209.634 98.5307 207.867 98.0805 206.089 97.8499C204.826 97.6906 203.064 97.4655 202.345 98.1408C201.533 98.8985 201.615 100.633 201.358 101.957C201.16 102.967 201.242 104.092 200.787 104.954C200.639 105.24 199.157 104.987 198.366 104.729C195.957 103.944 193.3 103.851 191.522 101.402C190.94 100.601 188.975 100.765 187.625 100.579C186.363 100.403 185.04 100.518 183.827 100.194C181.807 99.6562 180.479 98.9315 181.494 96.1204C181.994 94.7368 180.819 92.4693 179.864 90.9375C179.101 89.7132 177.718 90.1195 176.247 90.7564C174.249 91.6238 171.905 92.074 169.721 92.0576C165.193 92.0191 161.17 92.8866 157.531 95.8294C154.731 98.0914 151.082 97.8883 148.096 96.6255C145.313 95.4451 144.627 96.8616 144.287 98.6514C143.919 100.584 142.761 101.397 141.279 102.198C137.843 104.054 136.806 107.255 136.712 110.856C136.63 114.03 134.204 115.995 132.063 116.742C127.892 118.203 126.355 121.628 124.324 124.758C121.712 128.788 119.324 132.971 116.964 136.886C121.185 142.964 118.523 148.41 116.338 153.758C115.811 155.054 115.235 155.872 116.262 157.129C116.695 157.662 116.64 158.606 116.777 159.364C116.909 160.061 116.767 160.967 117.156 161.433C118.874 163.465 120.768 165.348 122.557 167.319C123.765 168.648 125.51 169.861 125.955 171.426C127.008 175.126 129.687 176.812 132.749 178.355C133.957 178.964 135.115 179.716 136.169 180.567C138.886 182.747 141.734 183.082 145.148 182.291C148.54 181.506 152.141 181.66 155.615 181.16C157.366 180.908 159.057 180.161 160.758 179.595C164.276 178.431 167.74 177.059 171.318 176.12C173.497 175.544 175.396 176.219 176.417 178.695C176.675 179.321 178.437 179.941 179.172 179.667C187.06 176.757 187.142 180.562 185.709 186.079C185.347 187.485 184.864 188.89 184.211 190.175C183.272 192.014 183.733 193.409 185.342 194.408C189.809 197.181 189.711 201.419 190.336 206.097C191.132 212.032 185.989 213.943 184.376 218.083C183.426 220.504 182.685 222.519 183.53 225.099C183.926 226.307 183.465 227.8 183.371 229.162C183.272 230.655 183.064 232.149 183.053 233.642C183.036 235.838 181.823 237.266 180.067 238.161C170.072 243.272 159.485 246.737 148.48 248.763C122.777 253.495 97.8801 250.69 73.9496 240.077C65.9965 236.58 58.4551 232.314 52.1816 227.537ZM127.941 7.72611C119.901 4.90957 111.596 6.12293 103.061 8.54416C104.527 10.8721 100.74 15.731 96.8647 17.3507C97.0787 17.8064 97.2928 18.2566 97.5343 18.7672C92.375 19.684 90.6021 23.121 88.4396 27.5682C87.7316 29.0231 88.994 32.6687 90.3442 33.4208C90.69 33.613 91.3486 33.6899 91.623 33.4922C94.3838 31.4992 97.0623 29.3964 99.8286 27.4089C100.86 26.6677 102.002 25.9979 103.193 25.5861C104.373 25.1799 105.712 25.2457 106.931 24.9163C110.68 23.9061 114.379 22.6927 118.15 21.7704C122.617 20.6723 122.82 20.5076 121.838 16.3459C125.812 15.473 126.706 14.6549 127.085 11.778C127.25 10.5152 127.607 9.27438 127.941 7.72611ZM139.358 43.5176C141.597 45.807 143.963 48.2338 146.564 50.8966C145.384 51.3358 144.66 51.6048 144.281 51.7476C144.127 53.1147 144.001 54.1963 143.869 55.3657C144.457 55.5743 145.264 55.8598 146.175 56.1838C145.099 57.1336 144.21 57.9242 143.167 58.8466C147.025 58.0395 150.516 57.3148 153.853 56.6175C153.798 55.8379 153.815 55.212 153.7 54.6025C153.579 53.9712 153.518 53.1805 153.118 52.7743C151.334 50.9679 149.435 49.2769 147.585 47.531C146.806 46.7953 146.048 46.0321 145.253 45.2525C145.395 44.8517 145.543 44.5223 145.631 44.1819C145.736 43.7701 145.796 43.3474 145.856 43.0179C143.677 41.9638 141.658 39.559 139.358 43.5176ZM135.433 55.8488C137.096 55.19 139.462 54.9484 140.527 53.6362C141.515 52.4229 141.109 50.0785 141.317 48.2338C140.099 48.1734 138.655 47.6792 137.722 48.1679C136.602 48.7498 135.56 50.0456 135.153 51.2589C134.78 52.4009 135.269 53.8339 135.433 55.8488ZM119.192 27.0136C119.264 29.3086 120.126 31.5212 123.677 30.9776C124.928 30.7855 126.234 30.5 127.332 29.9125C128.04 29.5282 128.413 28.5235 128.94 27.7933C128.062 27.3266 127.184 26.4756 126.3 26.4701C123.962 26.4536 121.624 26.7995 119.192 27.0136ZM13.7666 113.651C12.8829 111.411 11.9992 109.171 11.1156 106.931C9.1177 111.334 9.1177 111.334 13.7666 113.651ZM8.61823 104.784C8.87071 104.746 9.1177 104.713 9.37018 104.674C10.1276 100.793 8.89815 93.3917 7.49855 92.6999C7.86629 96.6859 8.24501 100.732 8.61823 104.784ZM147.333 10.4823C145.456 9.55439 143.633 7.39669 140.576 9.47752C142.541 10.5811 144.287 11.5584 145.823 12.4203C146.339 11.7505 146.795 11.174 147.333 10.4823Z" stroke="url(#paint0_linear)" stroke-width="2" stroke-miterlimit="10"/>
<path d="M242.824 133.943C248.373 120.656 250.069 108.078 244.651 95.3351C244.333 95.3241 244.015 95.3131 243.696 95.2966C243.696 96.7077 243.696 98.1242 243.696 99.7822C238.477 94.7915 236.649 91.6456 237.478 89.8612C238.515 91.0361 239.635 92.3099 241.051 93.9131C241.962 92.535 242.324 91.9969 242.659 91.4863C243.416 91.706 244.201 91.9311 245.502 92.3099C254.569 127.399 250.014 160.917 231.056 192.377C230.803 192.311 230.546 192.25 230.293 192.184C232.582 185.371 234.755 178.514 237.187 171.749C240.31 163.075 244.734 154.845 246.188 145.61C246.946 140.806 247.44 135.958 248.054 131.127C247.796 131.072 247.544 131.022 247.286 130.967C246.172 133.202 245.052 135.436 243.927 137.687C243.438 137.506 243.06 137.484 242.966 137.314C240.853 133.454 238.811 129.551 236.66 125.708C234.657 122.122 232.478 118.642 230.502 115.04C228.548 111.482 226.758 107.837 224.579 103.614C225.765 103.993 227.159 103.999 227.675 104.68C230.513 108.402 234.003 111.718 235.249 116.517C235.54 117.637 236.737 118.51 237.45 119.536C239.448 122.408 241.204 125.351 241.424 129.013C241.512 130.418 242.187 131.785 242.824 133.943Z" stroke="url(#paint1_linear)" stroke-width="2" stroke-miterlimit="10"/>
<defs>
<linearGradient id="paint0_linear" x1="1.32538" y1="33.0855" x2="258.966" y2="92.4869" gradientUnits="userSpaceOnUse">
<stop stop-color="#FF00B8"/>
<stop offset="0.505208" stop-color="#FF655B"/>
<stop offset="1" stop-color="#FFC700"/>
</linearGradient>
<linearGradient id="paint1_linear" x1="224.579" y1="103.019" x2="255.646" y2="105.027" gradientUnits="userSpaceOnUse">
<stop stop-color="#FF00B8"/>
<stop offset="0.505208" stop-color="#FF655B"/>
<stop offset="1" stop-color="#FFC700"/>
</linearGradient>
</defs>
</svg>
